<svg width="9" height="12" viewBox="0 0 9 12" fill="none" xmlns="http://www.w3.org/2000/svg">
<path fill-rule="evenodd" clip-rule="evenodd" d="M4.57866 6.25002C3.65532 6.25002 2.90837 5.50221 2.90837 4.57965C2.90837 3.65757 3.65532 2.90911 4.57866 2.90911C5.50167 2.90911 6.24927 3.65757 6.24927 4.57965C6.24927 5.50221 5.50167 6.25002 4.57866 6.25002ZM4.48394 1C2.54227 1 1 2.63678 1 4.65569C1 7.40791 3.95078 10.2519 3.95078 10.2519C4.34777 10.6278 4.59437 10.6585 5.01646 10.2519C5.01646 10.2519 8 7.40791 8 4.65569C8 2.63678 6.42544 1 4.48394 1Z" fill="#F55A5A"/>
<path d="M3.95078 10.2519L3.60378 10.6119L3.60699 10.615L3.95078 10.2519ZM5.01646 10.2519L4.67147 9.88999L4.66959 9.8918L5.01646 10.2519ZM4.57866 5.75002C3.93165 5.75002 3.40837 5.22625 3.40837 4.57965H2.40837C2.40837 5.77817 3.379 6.75002 4.57866 6.75002V5.75002ZM3.40837 4.57965C3.40837 3.93337 3.9318 3.40911 4.57866 3.40911V2.40911C3.37884 2.40911 2.40837 3.38177 2.40837 4.57965H3.40837ZM4.57866 3.40911C5.22538 3.40911 5.74927 3.93356 5.74927 4.57965H6.74927C6.74927 3.38158 5.77797 2.40911 4.57866 2.40911V3.40911ZM5.74927 4.57965C5.74927 5.22606 5.22554 5.75002 4.57866 5.75002V6.75002C5.77781 6.75002 6.74927 5.77836 6.74927 4.57965H5.74927ZM4.48394 0.5C2.24212 0.5 0.5 2.38527 0.5 4.65569H1.5C1.5 2.88828 2.84242 1.5 4.48394 1.5V0.5ZM0.5 4.65569C0.5 6.19071 1.31305 7.6961 2.06562 8.7724C2.44854 9.32004 2.83057 9.77724 3.11686 10.0977C3.26024 10.2581 3.38024 10.385 3.46517 10.4725C3.50765 10.5163 3.54141 10.5503 3.56499 10.5738C3.57678 10.5855 3.58603 10.5946 3.59255 10.601C3.59582 10.6042 3.5984 10.6067 3.60028 10.6085C3.60122 10.6094 3.60199 10.6102 3.60257 10.6107C3.60287 10.611 3.60312 10.6113 3.60332 10.6115C3.60342 10.6116 3.60354 10.6117 3.60359 10.6117C3.6037 10.6118 3.6038 10.6119 3.95078 10.2519C4.29776 9.89191 4.29783 9.89198 4.29789 9.89204C4.2979 9.89204 4.29795 9.89209 4.29796 9.89211C4.29799 9.89213 4.29797 9.89211 4.2979 9.89205C4.29777 9.89192 4.29747 9.89163 4.29699 9.89116C4.29603 9.89024 4.29439 9.88863 4.29207 9.88636C4.28743 9.88182 4.28011 9.87462 4.27029 9.86485C4.25064 9.8453 4.221 9.81549 4.1828 9.77612C4.10636 9.69736 3.99583 9.58055 3.86258 9.43141C3.59559 9.13257 3.23993 8.70676 2.88515 8.19937C2.16234 7.16561 1.5 5.87289 1.5 4.65569H0.5ZM3.60699 10.615C3.81486 10.8118 4.09644 11.0367 4.46254 11.0452C4.83804 11.054 5.13293 10.834 5.36333 10.612L4.66959 9.8918C4.58075 9.97737 4.52252 10.0186 4.48807 10.0375C4.45876 10.0535 4.46214 10.0449 4.48588 10.0455C4.50823 10.046 4.50856 10.0538 4.4754 10.0347C4.43815 10.0132 4.38073 9.97045 4.29456 9.88885L3.60699 10.615ZM5.01646 10.2519C5.36145 10.6138 5.36155 10.6137 5.36166 10.6136C5.36171 10.6136 5.36183 10.6135 5.36193 10.6134C5.36213 10.6132 5.36239 10.6129 5.36268 10.6127C5.36327 10.6121 5.36404 10.6113 5.36499 10.6104C5.36689 10.6086 5.3695 10.6061 5.3728 10.6029C5.37939 10.5965 5.38874 10.5874 5.40066 10.5757C5.42448 10.5523 5.4586 10.5183 5.50155 10.4745C5.5874 10.387 5.70871 10.2602 5.85367 10.0997C6.14308 9.77933 6.52934 9.32216 6.9165 8.77452C7.67718 7.69858 8.5 6.19241 8.5 4.65569H7.5C7.5 5.87119 6.83105 7.16313 6.09996 8.19724C5.74124 8.70464 5.38161 9.13048 5.11161 9.42936C4.97686 9.57853 4.86509 9.69536 4.78777 9.77415C4.74914 9.81352 4.71916 9.84335 4.69928 9.86291C4.68934 9.87268 4.68194 9.87989 4.67724 9.88444C4.67489 9.88671 4.67322 9.88832 4.67225 9.88925C4.67177 9.88971 4.67146 9.89001 4.67133 9.89014C4.67126 9.8902 4.67124 9.89022 4.67127 9.8902C4.67128 9.89018 4.67133 9.89014 4.67134 9.89013C4.6714 9.89007 4.67147 9.89 5.01646 10.2519ZM8.5 4.65569C8.5 2.37914 6.71973 0.5 4.48394 0.5V1.5C6.13115 1.5 7.5 2.89442 7.5 4.65569H8.5Z" fill="none"/>
</svg>
